<svg width="256" height="256" viewBox="0 0 256 256" fill="none" xmlns="http://www.w3.org/2000/svg">
<path fill-rule="evenodd" clip-rule="evenodd" d="M109.5 22.0415C121.257 15.2534 135.743 15.2534 147.5 22.0415L211.196 58.8162C222.953 65.6043 230.196 78.1491 230.196 91.7252V165.275C230.196 178.851 222.953 191.396 211.196 198.184L147.5 234.959C135.743 241.747 121.257 241.747 109.5 234.959L101.576 230.384C98.7063 228.727 97.7231 225.057 99.3799 222.188C101.037 219.318 104.706 218.334 107.576 219.991L115.5 224.566C123.544 229.211 133.456 229.211 141.5 224.566L205.196 187.791C213.24 183.147 218.196 174.564 218.196 165.275V91.7252C218.196 82.4363 213.24 73.853 205.196 69.2086L141.5 32.4338C133.456 27.7893 123.544 27.7893 115.5 32.4338L51.8042 69.2086C43.7598 73.853 38.8042 82.4363 38.8042 91.7252V165.275C38.8042 174.564 43.7598 183.147 51.8042 187.791L52.3025 188.079C56.255 190.361 60.7386 191.562 65.3025 191.562H78.4146C81.7283 191.562 84.4146 194.249 84.4146 197.562C84.4146 200.876 81.7283 203.562 78.4146 203.562H65.3025C58.6321 203.562 52.0793 201.807 46.3026 198.471L45.8042 198.184C34.047 191.396 26.8042 178.851 26.8042 165.275V91.7252C26.8042 78.1491 34.047 65.6043 45.8042 58.8162L109.5 22.0415Z" fill="url(#paint0_linear)"/>
<path d="M111.01 63.5278C89.9702 63.5278 72.9144 80.5837 72.9144 101.623V201.623C72.9144 202.675 73.7672 203.528 74.8192 203.528H134.819C155.859 203.528 172.914 186.472 172.914 165.433C172.914 164.381 172.062 163.528 171.01 163.528H112.914V153.528H134.819C155.859 153.528 172.914 136.472 172.914 115.433C172.914 114.381 172.062 113.528 171.01 113.528H112.914V103.528H134.819C155.859 103.528 172.914 86.472 172.914 65.4326C172.914 64.3806 172.062 63.5278 171.01 63.5278H111.01Z" fill="url(#paint1_linear)"/>
<defs>
<linearGradient id="paint0_linear" x1="72.9144" y1="203.528" x2="172.914" y2="63.5278" gradientUnits="userSpaceOnUse">
<stop stop-color="#2F44FF"/>
<stop offset="1" stop-color="#E016CC"/>
</linearGradient>
<linearGradient id="paint1_linear" x1="72.9144" y1="203.528" x2="172.914" y2="63.5278" gradientUnits="userSpaceOnUse">
<stop stop-color="#2F44FF"/>
<stop offset="1" stop-color="#E016CC"/>
</linearGradient>
</defs>
</svg>
