<svg width="64" height="64" viewBox="0 0 325 325" fill="none" xmlns="http://www.w3.org/2000/svg">
<path fill-rule="evenodd" clip-rule="evenodd" d="M149 103H172V154H149V103ZM117.699 137L144 121.815V148.373L140.699 150.279V173.721L161 185.442L181.301 173.721V150.279L177 147.796V121.238L204.301 137V187L161 212L117.699 187V137ZM74.3576 184.238C70.9577 185.509 67.0266 186.144 62.5642 186.144C56.9331 186.144 52.152 185.085 48.2209 182.968C44.396 180.85 41.5804 177.673 39.7742 173.437L103.204 161.206C103.204 152.31 101.185 144.633 97.1476 138.173C93.2164 131.608 87.9041 126.631 81.2105 123.242C74.517 119.747 67.0797 118 58.8987 118C50.1864 118 42.3242 119.906 35.3119 123.718C28.4058 127.425 22.9341 132.667 18.8967 139.444C14.9656 146.116 13 153.634 13 162C13 170.472 15.0187 178.043 19.0561 184.715C23.0935 191.386 28.8308 196.628 36.2681 200.44C43.7054 204.147 52.2582 206 61.9267 206C77.4388 206 89.2322 201.394 97.3069 192.181L84.0792 177.884C81.1043 180.744 77.8637 182.862 74.3576 184.238ZM43.5991 142.78C47.5303 138.756 52.6301 136.744 58.8987 136.744C63.9985 136.744 68.3547 138.067 71.967 140.715C75.5794 143.362 77.97 146.91 79.1387 151.357L37.3837 159.458C37.5962 152.363 39.668 146.804 43.5991 142.78ZM302.119 127.531C295.638 121.177 287.085 118 276.46 118C270.617 118 265.251 119.006 260.364 121.018C255.477 122.924 251.386 125.677 248.092 129.278V119.271H224.346V204.729H249.208V162.477C249.208 154.852 251.067 149.134 254.786 145.321C258.505 141.403 263.498 139.444 269.767 139.444C275.398 139.444 279.701 141.138 282.676 144.527C285.651 147.81 287.138 152.84 287.138 159.617V204.729H312V155.805C312 143.309 308.706 133.884 302.119 127.531Z" fill="url(#paint0_linear)"/>
<defs>
<linearGradient id="paint0_linear" x1="276.5" y1="126.5" x2="34.5" y2="174.5" gradientUnits="userSpaceOnUse">
<stop stop-color="#1FC9FF"/>
<stop offset="1" stop-color="#1FFF93"/>
</linearGradient>
</defs>
</svg>
