<svg width="325" height="152" viewBox="0 0 325 152" fill="none" xmlns="http://www.w3.org/2000/svg">
<rect width="325" height="152" fill="white"/>
<path fill-rule="evenodd" clip-rule="evenodd" d="M150.629 26H171.706V72.789H150.629V26ZM121.945 57.1927L146.047 43.2614V67.6267L143.022 69.3753V90.8816L161.625 101.635L180.229 90.8816V69.3753L176.288 67.097V42.7317L201.306 57.1927V103.064L161.625 126L121.945 103.064V57.1927ZM82.2274 100.531C79.1117 101.696 75.5093 102.279 71.42 102.279C66.2598 102.279 61.8784 101.308 58.276 99.3647C54.7709 97.4216 52.1908 94.507 50.5356 90.6209L108.662 79.3998C108.662 71.239 106.812 64.1954 103.112 58.2691C99.5094 52.2456 94.6412 47.6794 88.5073 44.5705C82.3734 41.3645 75.558 39.7615 68.061 39.7615C60.0772 39.7615 52.8723 41.5102 46.4463 45.0077C40.1177 48.4081 35.1035 53.2171 31.4037 59.4349C27.8012 65.5555 26 72.4534 26 80.1284C26 87.9007 27.8499 94.8471 31.5497 100.968C35.2495 107.088 40.5071 111.897 47.3226 115.395C54.138 118.795 61.9758 120.495 70.8359 120.495C85.0509 120.495 95.8583 116.269 103.258 107.817L91.1361 94.7014C88.4099 97.3245 85.4404 99.2675 82.2274 100.531ZM54.0407 62.4952C57.6431 58.8034 62.3166 56.9575 68.061 56.9575C72.7344 56.9575 76.7263 58.1719 80.0367 60.6007C83.347 63.0296 85.5377 66.2842 86.6087 70.3646L48.3449 77.7968C48.5396 71.2875 50.4382 66.187 54.0407 62.4952ZM290.945 48.5052C285.006 42.676 277.168 39.7615 267.432 39.7615C262.077 39.7615 257.16 40.6844 252.681 42.5303C248.203 44.2791 244.454 46.805 241.436 50.1082V40.9273H219.675V119.33H242.458V80.5656C242.458 73.5706 244.162 68.3244 247.57 64.8269C250.978 61.2322 255.554 59.4349 261.298 59.4349C266.458 59.4349 270.402 60.9893 273.128 64.0982C275.854 67.11 277.217 71.7247 277.217 77.9425V119.33H300V74.445C300 62.981 296.982 54.3344 290.945 48.5052Z" fill="url(#paint0_linear)"/>
<defs>
<linearGradient id="paint0_linear" x1="267.468" y1="47.5597" x2="45.6833" y2="91.5" gradientUnits="userSpaceOnUse">
<stop stop-color="#1FC9FF"/>
<stop offset="1" stop-color="#1FFF93"/>
</linearGradient>
</defs>
</svg>
